<?xml version="1.0" standalone="no"?>
<!DOCTYPE svg PUBLIC "-//W3C//DTD SVG 20010904//EN"
 "http://www.w3.org/TR/2001/REC-SVG-20010904/DTD/svg10.dtd">
<svg version="1.0" xmlns="http://www.w3.org/2000/svg"
 width="20" height="20" viewBox="0 0 200 200"
 preserveAspectRatio="xMidYMid meet">

<g transform="translate(0.000000,1280.000000) scale(0.100000,-0.100000)"
fill="#000000" stroke="none">
<path d="M0 6400 l0 -6400 6398 2 6397 3 3 6398 2 6397 -6400 0 -6400 0 0
-6400z m6625 5395 c132 -53 346 -140 475 -192 129 -52 330 -133 445 -180 801
-324 1407 -569 1433 -580 9 -4 12 -184 12 -852 l0 -847 -167 -66 c-93 -37
-292 -117 -443 -178 -151 -62 -390 -158 -530 -215 -140 -57 -307 -124 -370
-150 -132 -54 -698 -283 -965 -390 l-180 -73 0 -2184 0 -2183 205 -5 c113 -3
208 -4 213 -2 4 2 7 922 7 2045 l0 2042 128 51 c70 28 252 102 405 164 153 62
280 111 282 108 3 -3 5 -1006 5 -2231 0 -1724 3 -2228 12 -2233 7 -4 91 -16
188 -25 96 -10 192 -21 213 -24 l37 -7 0 2355 0 2355 123 50 c144 59 551 224
723 293 l121 48 94 -38 c52 -21 281 -114 509 -206 431 -174 772 -312 1313
-531 l317 -128 0 -2597 0 -2598 143 -73 c131 -68 681 -398 673 -405 -3 -4 -97
34 -381 152 -110 46 -254 102 -320 125 -66 24 -192 69 -280 100 -196 70 -303
105 -510 165 -88 26 -210 62 -270 80 -132 41 -814 205 -970 234 -519 97 -633
116 -955 157 -151 19 -304 39 -340 44 -36 5 -159 16 -275 25 -115 8 -293 22
-395 30 -102 8 -361 20 -577 26 -567 16 -1005 2 -1808 -62 -125 -9 -767 -89
-890 -110 -88 -15 -479 -85 -635 -115 -74 -14 -216 -45 -315 -69 -99 -24 -250
-60 -335 -80 -85 -20 -204 -52 -265 -70 -60 -18 -182 -54 -270 -80 -367 -108
-893 -293 -1195 -421 -239 -101 -339 -139 -325 -126 20 20 469 294 588 359
162 88 627 318 697 344 30 11 60 25 67 31 10 8 13 328 13 1578 l0 1567 33 10
c17 6 110 43 206 82 95 39 177 71 182 71 5 0 9 -663 9 -1564 l0 -1564 210 70
210 70 0 1583 0 1583 63 25 c34 13 187 75 340 137 l277 112 168 -68 c92 -37
266 -108 387 -157 121 -49 369 -149 550 -222 182 -73 351 -143 378 -154 l47
-20 0 -1176 0 -1175 28 0 c16 0 109 9 208 20 98 11 182 20 187 20 4 0 7 584 7
1299 l0 1299 -205 82 -205 83 0 2497 c0 1989 3 2499 13 2503 6 3 86 35 177 72
959 390 971 394 994 385 12 -4 129 -51 261 -105z m-1925 -2855 c0 -1265 -2
-2300 -4 -2300 -4 0 -152 60 -601 242 -148 60 -300 121 -337 135 l-68 26 0
1892 c0 1502 3 1895 13 1902 6 6 172 75 367 153 195 79 414 167 485 196 72 29
133 53 138 54 4 0 7 -1035 7 -2300z"/>
</g>
</svg>
